<mxfile host="app.diagrams.net" modified="2023-08-16T11:10:06.527Z" agent="Mozilla/5.0 (Windows NT 10.0; Win64; x64) AppleWebKit/537.36 (KHTML, like Gecko) Chrome/115.0.0.0 Safari/537.36" etag="-y1IW4MMSWT4SvJFC2wn" version="21.6.8" type="github">
  <diagram name="Page-1" id="kofEtEwuHFttVS7a7wvx">
    <mxGraphModel dx="2044" dy="760" grid="1" gridSize="10" guides="1" tooltips="1" connect="1" arrows="1" fold="1" page="1" pageScale="1" pageWidth="850" pageHeight="1100" math="0" shadow="0">
      <root>
        <mxCell id="0" />
        <mxCell id="1" parent="0" />
        <mxCell id="LwD_bo4SeNRyqzH8LdQW-1" value="AWS Cloud" style="points=[[0,0],[0.25,0],[0.5,0],[0.75,0],[1,0],[1,0.25],[1,0.5],[1,0.75],[1,1],[0.75,1],[0.5,1],[0.25,1],[0,1],[0,0.75],[0,0.5],[0,0.25]];outlineConnect=0;gradientColor=none;html=1;whiteSpace=wrap;fontSize=12;fontStyle=0;container=1;pointerEvents=0;collapsible=0;recursiveResize=0;shape=mxgraph.aws4.group;grIcon=mxgraph.aws4.group_aws_cloud_alt;strokeColor=#232F3E;fillColor=none;verticalAlign=top;align=left;spacingLeft=30;fontColor=#232F3E;dashed=0;strokeWidth=2;" vertex="1" parent="1">
          <mxGeometry x="300" y="110" width="1000" height="580" as="geometry" />
        </mxCell>
        <mxCell id="LwD_bo4SeNRyqzH8LdQW-2" value="" style="rounded=0;whiteSpace=wrap;html=1;dashed=1;" vertex="1" parent="LwD_bo4SeNRyqzH8LdQW-1">
          <mxGeometry x="50" y="60" width="910" height="500" as="geometry" />
        </mxCell>
        <mxCell id="LwD_bo4SeNRyqzH8LdQW-3" value="Gitlab pipeline" style="sketch=0;points=[[0,0,0],[0.25,0,0],[0.5,0,0],[0.75,0,0],[1,0,0],[0,1,0],[0.25,1,0],[0.5,1,0],[0.75,1,0],[1,1,0],[0,0.25,0],[0,0.5,0],[0,0.75,0],[1,0.25,0],[1,0.5,0],[1,0.75,0]];outlineConnect=0;fontColor=#232F3E;gradientColor=#4D72F3;gradientDirection=north;fillColor=#3334B9;strokeColor=#ffffff;dashed=0;verticalLabelPosition=bottom;verticalAlign=top;align=center;html=1;fontSize=12;fontStyle=0;aspect=fixed;shape=mxgraph.aws4.resourceIcon;resIcon=mxgraph.aws4.codepipeline;" vertex="1" parent="LwD_bo4SeNRyqzH8LdQW-1">
          <mxGeometry x="140" y="30" width="58" height="58" as="geometry" />
        </mxCell>
        <mxCell id="LwD_bo4SeNRyqzH8LdQW-7" value="Build" style="rounded=0;whiteSpace=wrap;html=1;dashed=1;labelPosition=center;verticalLabelPosition=top;align=center;verticalAlign=bottom;" vertex="1" parent="LwD_bo4SeNRyqzH8LdQW-1">
          <mxGeometry x="90" y="160" width="260" height="220" as="geometry" />
        </mxCell>
        <mxCell id="LwD_bo4SeNRyqzH8LdQW-8" value="Gitlab Runner" style="outlineConnect=0;dashed=0;verticalLabelPosition=bottom;verticalAlign=top;align=center;html=1;shape=mxgraph.aws3.instance;fillColor=#F58534;gradientColor=none;" vertex="1" parent="LwD_bo4SeNRyqzH8LdQW-1">
          <mxGeometry x="110" y="238.5" width="60" height="63" as="geometry" />
        </mxCell>
        <mxCell id="LwD_bo4SeNRyqzH8LdQW-9" value="" style="rounded=0;whiteSpace=wrap;html=1;strokeColor=none;" vertex="1" parent="LwD_bo4SeNRyqzH8LdQW-1">
          <mxGeometry x="150" y="260" width="20" height="20" as="geometry" />
        </mxCell>
        <mxCell id="LwD_bo4SeNRyqzH8LdQW-17" value="&lt;span style=&quot;font-weight: normal;&quot;&gt;AWS Fargate&lt;/span&gt;" style="rounded=0;whiteSpace=wrap;html=1;fillColor=#dae8fc;strokeColor=#6c8ebf;fontStyle=1;labelPosition=center;verticalLabelPosition=top;align=center;verticalAlign=bottom;" vertex="1" parent="LwD_bo4SeNRyqzH8LdQW-1">
          <mxGeometry x="214" y="190" width="100" height="160" as="geometry" />
        </mxCell>
        <mxCell id="LwD_bo4SeNRyqzH8LdQW-11" value="Ci-Coordinator" style="sketch=0;outlineConnect=0;fontColor=#232F3E;gradientColor=none;fillColor=#D45B07;strokeColor=none;dashed=0;verticalLabelPosition=bottom;verticalAlign=top;align=center;html=1;fontSize=12;fontStyle=0;aspect=fixed;pointerEvents=1;shape=mxgraph.aws4.container_2;" vertex="1" parent="LwD_bo4SeNRyqzH8LdQW-1">
          <mxGeometry x="240" y="207.5" width="48" height="31" as="geometry" />
        </mxCell>
        <mxCell id="LwD_bo4SeNRyqzH8LdQW-12" value="CI-Coordinator" style="sketch=0;outlineConnect=0;fontColor=#232F3E;gradientColor=none;fillColor=#D45B07;strokeColor=none;dashed=0;verticalLabelPosition=bottom;verticalAlign=top;align=center;html=1;fontSize=12;fontStyle=0;aspect=fixed;pointerEvents=1;shape=mxgraph.aws4.container_2;" vertex="1" parent="LwD_bo4SeNRyqzH8LdQW-1">
          <mxGeometry x="240" y="290" width="48" height="31" as="geometry" />
        </mxCell>
        <mxCell id="LwD_bo4SeNRyqzH8LdQW-14" value="" style="endArrow=classic;html=1;rounded=0;exitX=1;exitY=0.25;exitDx=0;exitDy=0;dashed=1;" edge="1" parent="LwD_bo4SeNRyqzH8LdQW-1" source="LwD_bo4SeNRyqzH8LdQW-9" target="LwD_bo4SeNRyqzH8LdQW-11">
          <mxGeometry width="50" height="50" relative="1" as="geometry">
            <mxPoint x="198" y="248" as="sourcePoint" />
            <mxPoint x="248" y="198" as="targetPoint" />
            <Array as="points">
              <mxPoint x="210" y="250" />
            </Array>
          </mxGeometry>
        </mxCell>
        <mxCell id="LwD_bo4SeNRyqzH8LdQW-16" value="" style="endArrow=classic;html=1;rounded=0;dashed=1;" edge="1" parent="LwD_bo4SeNRyqzH8LdQW-1" source="LwD_bo4SeNRyqzH8LdQW-9" target="LwD_bo4SeNRyqzH8LdQW-12">
          <mxGeometry width="50" height="50" relative="1" as="geometry">
            <mxPoint x="180" y="275" as="sourcePoint" />
            <mxPoint x="250" y="245" as="targetPoint" />
          </mxGeometry>
        </mxCell>
        <mxCell id="LwD_bo4SeNRyqzH8LdQW-18" value="Secure" style="rounded=0;whiteSpace=wrap;html=1;dashed=1;labelPosition=center;verticalLabelPosition=top;align=center;verticalAlign=bottom;" vertex="1" parent="LwD_bo4SeNRyqzH8LdQW-1">
          <mxGeometry x="400" y="160" width="140" height="220" as="geometry" />
        </mxCell>
        <mxCell id="LwD_bo4SeNRyqzH8LdQW-19" value="Push" style="rounded=0;whiteSpace=wrap;html=1;dashed=1;labelPosition=center;verticalLabelPosition=top;align=center;verticalAlign=bottom;" vertex="1" parent="LwD_bo4SeNRyqzH8LdQW-1">
          <mxGeometry x="590" y="160" width="140" height="220" as="geometry" />
        </mxCell>
        <mxCell id="LwD_bo4SeNRyqzH8LdQW-20" value="Deploy" style="rounded=0;whiteSpace=wrap;html=1;dashed=1;labelPosition=center;verticalLabelPosition=top;align=center;verticalAlign=bottom;" vertex="1" parent="LwD_bo4SeNRyqzH8LdQW-1">
          <mxGeometry x="790" y="160" width="140" height="220" as="geometry" />
        </mxCell>
        <mxCell id="LwD_bo4SeNRyqzH8LdQW-4" value="" style="rounded=0;whiteSpace=wrap;html=1;dashed=1;" vertex="1" parent="1">
          <mxGeometry x="-150" y="290" width="260" height="180" as="geometry" />
        </mxCell>
        <mxCell id="LwD_bo4SeNRyqzH8LdQW-5" value="Developers" style="sketch=0;outlineConnect=0;gradientColor=none;fontColor=#545B64;strokeColor=none;fillColor=#879196;dashed=0;verticalLabelPosition=bottom;verticalAlign=top;align=center;html=1;fontSize=12;fontStyle=0;aspect=fixed;shape=mxgraph.aws4.illustration_users;pointerEvents=1" vertex="1" parent="1">
          <mxGeometry x="-130" y="345" width="70" height="70" as="geometry" />
        </mxCell>
        <mxCell id="LwD_bo4SeNRyqzH8LdQW-6" value="" style="sketch=0;aspect=fixed;pointerEvents=1;shadow=0;dashed=0;html=1;strokeColor=none;labelPosition=center;verticalLabelPosition=bottom;verticalAlign=top;align=center;fillColor=#00188D;shape=mxgraph.mscae.enterprise.workstation_client" vertex="1" parent="1">
          <mxGeometry x="30" y="352.5" width="55" height="55" as="geometry" />
        </mxCell>
        <mxCell id="LwD_bo4SeNRyqzH8LdQW-23" value="" style="shape=image;verticalLabelPosition=bottom;labelBackgroundColor=default;verticalAlign=top;aspect=fixed;imageAspect=0;image=data:image/jpeg,/9j/4AAQSkZJRgABAQAAAQABAAD/2wCEAAkGBw0PDQ0NDQ0NDQ4NEBIPEA0ODRAPDg4PFBEiFhYSFhMkHDQsGBoxGxgfITEhMSk3Li4uFx82OD8sNyguLisBCgoKDg0OGxAQGy4mHyUtLS0tLS0tKy0tLSstLS4rLS0tLS0rLy0tLS01LystLS0tNS0tLS0tLS0tLS0tLS0tLf/AABEIAJQAngMBEQACEQEDEQH/xAAbAAEAAgMBAQAAAAAAAAAAAAAABQcBAwYEAv/EAEQQAAEDAwEEAwoLBgcAAAAAAAEAAgMEERIFBhMhMQc1cxQXIkFRVIGSstIVFjRSU3FykZSz4TKToaKxwiMzRGFio8H/xAAaAQEAAgMBAAAAAAAAAAAAAAAAAQQDBQYC/8QALhEBAAIBAwIDBwQDAQAAAAAAAAEDAgQREgUxFCEzExVRUmFxgTRBsfAiMkPR/9oADAMBAAIRAxEAPwC8UBAQEBAQEBAQEBAQEBAQEBAQEBAQEBAQEBAQEBAQEBAQEBAQEBAQEBAQEBAQEBAQEBAQEBAQEBAQEBAQEBAQEBAQEBAQEBAQEBAQEBAQEBAQEBAQEBAQEBAQEBAQEBAQEBAQEBAQEBAQEBAQEBAQEBAQEBAQEBAQYQEglx9Z0g0UM0sLoqkuhe6NxayPEua6xt4fK4Wxr6XdbjzjtLXZ9Rwwy4z3au+XQ/Q1fqRe+snue/6PPvSo75dD9DV+pF76e57/AKf38I96VHfLofoav1IvfUe6L/p/fwe9KnR6Fq8VZAJ4mvawuc2zwA64NjyJVC+jKnLhkvU3RZjyhJLEzCAgygICAgwgICAgygIMIhydTt9QRySROE+UbnMdaMEXabGxv5Qtjh0y/PHlHZQz6hVjlxlyFTshW1cktZAIjFVSPmjykxdhI/IXFuBseS2lPUKqMIqz7w11misuy5x2lr73upfNh/e/osvvehj912ne91L5sP739E970Huy1AatpktLM6CbHNgBOLrixFxx9KvafUY3YcseynfTNOXHJafRn1YztJPaXM9V/US6HpvoQntV1SClj31Q/dx3DcsXP4nkLAEqjVVnbPHCPNcttxrx3yRHx50nzr/on9xWvdup+T+FXx+n+ZIaPrtJWZill3u6xz8B7LZXtzAvyKr26a2nb2kbbrFWort/0lKrCzCAg090R5YZtz+bkMvuU8J23eeUdkfq+vUlGWCpm3RkBLf8OR9wOfIG3NZatPZbvwjdjsvrq25S9GpanT0se9qJWxMPAE3u425ADiSvNdOduXHCN5TZdjhjyyl86Tq1PVxulppN4xrsCcXss4AEixA8RCW051Zcc4KrcbI5YvesbKygIMFESoLW/llX28v5hXbaX0Mfs5HUerK59k+rqLsI/ZC5HV+tl93T6X0oS6rrAgpvpH60m+zH7AXWdJ9CPz/Lmep+tLuOjPqxnaSe0tL1X9RLbdN9CGrpR6uHbM/oVPSf1COp+i5/Zj4C7jh7t3XdHh55b2/+Ycb2/wCNle1njfa5ez7fhT0nhprjn3dNQ1uk0lLUVdGGboFrZN3ld7x+yzj4/C/itdnXqbrIrs7r2FlFWE5YIdm1+rSMdVQ6fGaVtzclznYjmQ64v9eKszoNPjPDLP8AyV/GXZRzxx8k7QbUtqdOqauFobLTxSOdE8lwa9rC4Anhcf7qnbo5qtjDLtP7rVer51c47wgdE23rql0cbaRkj3StEkkTJDHHCSOJFzY8+JNuSt6jp1dMbzkq066yydohBx6hU/DvdHcbjUZE9x70ZX3GJ8O3zfC5K9lRV4Ljy8vjsqRbZ4rlt5/B0G3+rGIUTn0lLK6SN7i2pjMhiPg3aCCPGeP1LX6DT+057ZTEQua67hOO8bozpQqpnzQRvgdHFEX7uUvDhPcNuQ23Cx4elXOkYYYxllv5/wAK3Us8pnGNvL+UlU6xVUOnsmg06GjBmwfE+8gcDGMZbtItyt6AqmNGF984znv9Vn22dNUTGOz37QbVyQafR1ULYzLVYkteHFrQWZO4Ag8DYLDp9DFl2WGU7RDLdrJxrjKP3dLpMsr6eGScNEr2Nc9rAQ1pIvYAlUbMccc5jHsu1TM4ROXd7FjZAqUSoLW/llX28v5hXbaX0Mfs5HUerK59k+rqLsI/ZC5HV+tl93T6T0oS6rrAgpvpH60m+zH7AXWdJ9CPz/Lmep+tLuOjPqxnaSe0tL1X9RLbdN9CGrpR6uHbM/oVPSf1COp+i8Ox2yun1OnwTz0+cj95k7eytvjK4DgHWHALLrtdfhfljjl5fhh0ejqzpjLKPN9ba7PRQaW9tHGY2MmbPIzJ78gGlpPEnyg+hedDqcs9RE2S9avT44Uz7OG7Z/aigj0yISSsa+GLB0J/bc4C1gPHf/1NTo7stRM49pnuUaqrGnaZ84QOxlK8abrExBEclO5jb8nFsby4/wAwH3q11DPGbq8Y7wraTDL2WeX7Sm+ib5JUdv8A2BVur+pH2WOlx/jKInqo4NpnyzOEcbHHJ7uQypbC/pIVqMMrOnbY/wB81ecow12+TZ0sODnULhxBZIQR4wS0heejxMY2Q99U88sG3pd/0H1T/wBi89G/6fb/ANOqf83VbR0HdGmTRAXduQ5o8ebBk0feFrtPb7PURl9V++vnRt9Fa6U410mlUJuWwOkyuOGBeXn+Vtlvr8Yoxstj99mmqmbssK/gucLlXSQISFCeygtb+WVfby/mFdtpNvY4/ZyOo8rZWjs5tJQR0NLHJVRMeyFjXNLuLSG2IK5rU6O/K3KYx/dvtPqqsa4jdJfGzTfPIfWWDwN+/wDqz+Mp+J8a9N88h9ZPA3/KeMp+ZX211DPW1slTRxSVMLmsAliaXMJa2xF/LdbzQ34aeqMLZ2lqNZVndZyr84dtsBRyw6eyOaN8Tw95xeLGxNwbLT9RswsunLCfJtNDXlXXEZJjVNLgqo9zUM3kdw7HJzOI5G4IKqVXZ1ZcsJ2lZtqwsjbJ9adQRU0TIIGYRsvi3JzrXdc8SbniUssyzynPLuYYY4Y8cez1OAIseIPMeULxEzDJMbwgpNj9Mc/eGkjy52DntZf7ANv4K1GuviOPLyVJ0dMzy2Sj6GEwup920QuYYzG0YtwIsQLcuBVf2mW/LfzZ/Z48eO3k06RpFNSMcymj3bXOyIyc67rWvck+Rerb87fPOd0VU4VeWMNGqbOUNU/eVFOHvAtmHPY4geIkEXXuvV21RxwnyeLNLXnO+UM6ps9R1QjFRDvBCMWWkkZiD4uBF+QSrVW178J23TZpq7NuUdn1q+hUlZu+6Yt7ussPDey2Vr8iL8goq1NtO/Cdt02aeuzblHZ86/XS0tOH09M+pcHNbumBxIb5eAJsPqU0Y42Z7Zzs835zhj/jG7lejzQZo55qyeEwXBbFE5paW5G7vBPECwAC2XUtXjnhjXhO6joNNljlNmUbLBWmbYQYKQiVIavo1a6qqXNo6pzXTSua5tPIQ4F5IINuIsut02spxrxxnKHMX6azLOZiHk+Aq/zKr/DS+6s3jtP80MMaW74HwFX+ZVf4aX3U8bp/mg8Ld8D4Cr/Mqv8ADS+6njdP80EaW74LT6PaaSLT2MljfE/N5wkYWOALuBsQua6jZjZdOWPZ0GgwnGrbLu6dUV0UJFIKAUggICAgICAgygICBZEbQxZDaCyG0FkNoZRIgICAgICAgICAgICAgICAgICAgICAgICAgICAgICAgICAgICAgICAgICAgICAgICAgICAgICAgICAgICAgICAgICAgICAgICAgICAgICAgICAgICAgICAgICAgICAgICAgICAgICAgICAgICAgICAgICAgICAgICAgICAgICAgICAgICAgIP/2Q==;" vertex="1" parent="1">
          <mxGeometry width="158" height="148" as="geometry" />
        </mxCell>
      </root>
    </mxGraphModel>
  </diagram>
</mxfile>
